<svg xmlns="http://www.w3.org/2000/svg" width="50" height="34" viewBox="0 0 50 34" fill="none"><path d="M47.0406 15.027V12.3068C47.0406 12.1676 47.0008 12.0312 46.926 11.9136L44.2625 7.72832C44.128 7.51709 43.895 7.38916 43.6447 7.38916H34.4703C34.0657 7.38916 33.7379 7.71709 33.7379 8.12158V15.027C33.7379 15.4314 34.0657 15.7594 34.4703 15.7594H46.3082C46.7127 15.7594 47.0406 15.4314 47.0406 15.027ZM45.5757 14.2945H35.2027V8.854H43.2425L45.5757 12.5202V14.2945Z" fill="white"></path><path d="M49.2676 17.5811C49.6722 17.5811 50 17.2531 50 16.8486V11.0812C50 10.9366 49.9572 10.7952 49.877 10.6749L45.9311 4.75596C45.7952 4.55225 45.5666 4.42979 45.3217 4.42979H32.2433V1.21631C32.2433 0.811816 31.9154 0.483887 31.5108 0.483887H27.9379C27.5333 0.483887 27.2055 0.811816 27.2055 1.21631C27.2055 1.6208 27.5333 1.94873 27.9379 1.94873H30.7784V24.1596H22.0898C21.0502 22.9528 19.5127 22.1866 17.7986 22.1866C16.0846 22.1866 14.5471 22.9528 13.5074 24.1596H12.2249C11.1853 22.9528 9.64775 22.1866 7.93369 22.1866C6.21963 22.1866 4.68213 22.9528 3.64248 24.1596H1.46484V1.94873H24.4856C24.8901 1.94873 25.2181 1.6208 25.2181 1.21631C25.2181 0.811816 24.8901 0.483887 24.4856 0.483887H0.732422C0.32793 0.483887 0 0.811816 0 1.21631V24.892V27.8515C0 28.256 0.32793 28.5839 0.732422 28.5839H2.31787C2.67842 31.3625 5.0585 33.5163 7.93379 33.5163C10.0472 33.5163 11.8928 32.3522 12.8662 30.6323C13.8397 32.3522 15.6853 33.5163 17.7986 33.5163C20.6739 33.5163 23.054 31.3625 23.4146 28.5839H25.6905C26.0951 28.5839 26.423 28.256 26.423 27.8515C26.423 27.447 26.0951 27.119 25.6905 27.119H23.4146C23.3466 26.5953 23.208 26.0936 23.0067 25.6244H34.1947C33.9934 26.0935 33.8548 26.5953 33.7868 27.119H29.1503C28.7457 27.119 28.4179 27.447 28.4179 27.8515C28.4179 28.256 28.7457 28.5839 29.1503 28.5839H33.7868C34.1474 31.3625 36.5274 33.5163 39.4027 33.5163C42.278 33.5163 44.6582 31.3625 45.0187 28.5839H49.2676C49.6722 28.5839 50 28.256 50 27.8515V20.3154C50 19.9109 49.6722 19.583 49.2676 19.583C48.863 19.583 48.5352 19.9109 48.5352 20.3154V24.1596H43.6939C42.6543 22.9528 41.1168 22.1866 39.4027 22.1866C37.6887 22.1866 36.1513 22.9528 35.1116 24.1596H32.2434V5.89463H44.9297L48.5352 11.3029V16.8486C48.5352 17.2531 48.863 17.5811 49.2676 17.5811ZM1.46484 25.6244H2.72568C2.52432 26.0935 2.38574 26.5953 2.31787 27.119H1.46484V25.6244ZM7.93379 32.0515C5.61797 32.0515 3.73379 30.1674 3.73379 27.8515C3.73379 25.5356 5.61787 23.6515 7.93379 23.6515C10.2497 23.6515 12.1338 25.5356 12.1338 27.8515C12.1338 30.1674 10.2497 32.0515 7.93379 32.0515ZM17.7986 32.0515C15.4827 32.0515 13.5986 30.1674 13.5986 27.8515C13.5986 25.5356 15.4827 23.6515 17.7986 23.6515C20.1145 23.6515 21.9986 25.5356 21.9986 27.8515C21.9986 30.1674 20.1145 32.0515 17.7986 32.0515ZM48.5352 25.6244V27.119H45.0187C44.9507 26.5953 44.8121 26.0936 44.6107 25.6244H48.5352ZM39.4026 23.6515C41.7186 23.6515 43.6027 25.5356 43.6027 27.8515C43.6027 30.1674 41.7186 32.0515 39.4026 32.0515C37.0867 32.0515 35.2026 30.1674 35.2026 27.8515C35.2027 25.5356 37.0868 23.6515 39.4026 23.6515Z" fill="white"></path><path d="M34.4703 16.8594C34.0657 16.8594 33.7379 17.1873 33.7379 17.5918C33.7379 17.9963 34.0657 18.3242 34.4703 18.3242H36.4433C36.8479 18.3242 37.1757 17.9963 37.1757 17.5918C37.1757 17.1873 36.8479 16.8594 36.4433 16.8594H34.4703Z" fill="white"></path><path d="M39.4027 30.0635C40.6224 30.0635 41.6148 29.0711 41.6148 27.8513C41.6148 26.6314 40.6224 25.6392 39.4027 25.6392C38.1829 25.6392 37.1906 26.6315 37.1906 27.8513C37.1906 29.071 38.1829 30.0635 39.4027 30.0635ZM39.4027 27.1039C39.8148 27.1039 40.1499 27.4392 40.1499 27.8512C40.1499 28.2632 39.8147 28.5985 39.4027 28.5985C38.9907 28.5985 38.6554 28.2633 38.6554 27.8512C38.6554 27.4391 38.9907 27.1039 39.4027 27.1039Z" fill="white"></path><path d="M17.7986 25.6392C16.5788 25.6392 15.5864 26.6315 15.5864 27.8513C15.5864 29.071 16.5788 30.0635 17.7986 30.0635C19.0185 30.0635 20.0107 29.0711 20.0107 27.8513C20.0107 26.6314 19.0185 25.6392 17.7986 25.6392ZM17.7986 28.5987C17.3865 28.5987 17.0513 28.2635 17.0513 27.8514C17.0513 27.4393 17.3865 27.1041 17.7986 27.1041C18.2107 27.1041 18.5459 27.4394 18.5459 27.8514C18.5459 28.2634 18.2107 28.5987 17.7986 28.5987Z" fill="white"></path><path d="M7.93379 25.6392C6.71396 25.6392 5.72168 26.6315 5.72168 27.8513C5.72168 29.071 6.71406 30.0635 7.93379 30.0635C9.15352 30.0635 10.146 29.0711 10.146 27.8513C10.146 26.6314 9.15352 25.6392 7.93379 25.6392ZM7.93379 28.5987C7.52168 28.5987 7.18652 28.2635 7.18652 27.8514C7.18652 27.4393 7.52178 27.1041 7.93379 27.1041C8.3458 27.1041 8.68115 27.4394 8.68115 27.8514C8.68115 28.2634 8.3458 28.5987 7.93379 28.5987Z" fill="white"></path><path d="M3.59326 3.44336C3.18877 3.44336 2.86084 3.77129 2.86084 4.17578V19.9596C2.86084 20.3641 3.18877 20.692 3.59326 20.692H6.55273C6.95723 20.692 7.28516 20.3641 7.28516 19.9596V4.17578C7.28516 3.77129 6.95723 3.44336 6.55273 3.44336H3.59326ZM5.82031 19.2271H4.32568V4.9082H5.82031V19.2271Z" fill="white"></path><path d="M9.11755 3.44336C8.71306 3.44336 8.38513 3.77129 8.38513 4.17578V19.9596C8.38513 20.3641 8.71306 20.692 9.11755 20.692H12.077C12.4815 20.692 12.8094 20.3641 12.8094 19.9596V4.17578C12.8094 3.77129 12.4815 3.44336 12.077 3.44336H9.11755ZM11.3446 19.2271H9.84998V4.9082H11.3446V19.2271Z" fill="white"></path><path d="M14.6419 3.44336C14.2374 3.44336 13.9095 3.77129 13.9095 4.17578V19.9596C13.9095 20.3641 14.2374 20.692 14.6419 20.692H17.6014C18.0059 20.692 18.3338 20.3641 18.3338 19.9596V4.17578C18.3338 3.77129 18.0059 3.44336 17.6014 3.44336H14.6419ZM16.869 19.2271H15.3743V4.9082H16.869V19.2271Z" fill="white"></path><path d="M20.1662 3.44336C19.7617 3.44336 19.4338 3.77129 19.4338 4.17578V19.9596C19.4338 20.3641 19.7617 20.692 20.1662 20.692H23.1257C23.5302 20.692 23.8581 20.3641 23.8581 19.9596V4.17578C23.8581 3.77129 23.5302 3.44336 23.1257 3.44336H20.1662ZM22.3933 19.2271H20.8986V4.9082H22.3933V19.2271Z" fill="white"></path><path d="M24.9581 4.17578V19.9596C24.9581 20.3641 25.286 20.692 25.6906 20.692H28.65C29.0546 20.692 29.3824 20.3641 29.3824 19.9596V4.17578C29.3824 3.77129 29.0546 3.44336 28.65 3.44336H25.6906C25.2861 3.44336 24.9581 3.77129 24.9581 4.17578ZM26.423 4.9082H27.9176V19.2271H26.423V4.9082Z" fill="white"></path></svg>