<svg xmlns="http://www.w3.org/2000/svg" width="53" height="45" viewBox="0 0 53 45" fill="none"><path d="M42.4 19.8498H38.8667V1.29984C38.8667 0.812016 38.4712 0.416504 37.9833 0.416504H30.9167C30.4288 0.416504 30.0333 0.812016 30.0333 1.29984V19.8498H26.5C22.599 19.8543 19.4377 23.0155 19.4333 26.9165C19.4333 27.4043 19.8288 27.7998 20.3167 27.7998H20.753L14.2022 43.3571C14.013 43.8067 14.224 44.3247 14.6736 44.5139C14.7821 44.5597 14.8989 44.5832 15.0167 44.5832H43.2833C43.7011 44.5834 44.062 44.2907 44.1481 43.8818L47.533 27.7998H48.5833C49.0712 27.7998 49.4667 27.4043 49.4667 26.9165C49.4622 23.0155 46.301 19.8543 42.4 19.8498ZM31.8 2.18317H37.1V19.8498H31.8V2.18317ZM42.5661 42.8165H39.2094L41.4716 36.029C41.6258 35.5656 41.375 35.0648 40.9116 34.9107C40.4482 34.7565 39.9474 35.0073 39.7933 35.4707L37.3473 42.8165H34.7918L37.0541 36.029C37.2082 35.5656 36.9574 35.0648 36.494 34.9107C36.0306 34.7565 35.5299 35.0073 35.3757 35.4707L32.9307 42.8165H30.3752L32.6374 36.029C32.7915 35.5656 32.5408 35.0648 32.0774 34.9107C31.6139 34.7565 31.1132 35.0073 30.9591 35.4707L28.514 42.8165H25.9585L28.2207 36.029C28.3749 35.5656 28.1241 35.0648 27.6607 34.9107C27.1973 34.7565 26.6965 35.0073 26.5424 35.4707L24.0973 42.8165H21.5418L23.8041 36.029C23.9582 35.5656 23.7074 35.0648 23.244 34.9107C22.7806 34.7565 22.2799 35.0073 22.1257 35.4707L19.6807 42.8165H16.347L22.6699 27.7998H45.7249L42.5661 42.8165ZM21.2733 26.0332C21.7078 23.4848 23.9148 21.6197 26.5 21.6165H42.4C44.9852 21.6197 47.1922 23.4848 47.6267 26.0332H21.2733Z" fill="white"></path><path d="M11.4833 42.8169H0.883333C0.395512 42.8169 0 43.2124 0 43.7002C0 44.188 0.395512 44.5836 0.883333 44.5836H11.4833C11.9712 44.5836 12.3667 44.188 12.3667 43.7002C12.3667 43.2124 11.9712 42.8169 11.4833 42.8169Z" fill="white"></path><path d="M11.4833 37.5166H4.41666C3.92884 37.5166 3.53333 37.9121 3.53333 38.3999C3.53333 38.8878 3.92884 39.2833 4.41666 39.2833H11.4833C11.9711 39.2833 12.3667 38.8878 12.3667 38.3999C12.3667 37.9121 11.9711 37.5166 11.4833 37.5166Z" fill="white"></path><path d="M52.1167 13.6666C50.6531 13.6666 49.4667 12.4802 49.4667 11.0166C49.4667 10.5288 49.0712 10.1333 48.5834 10.1333C48.0955 10.1333 47.7 10.5288 47.7 11.0166C47.7 12.4802 46.5136 13.6666 45.05 13.6666C44.5622 13.6666 44.1667 14.0621 44.1667 14.55C44.1667 15.0378 44.5622 15.4333 45.05 15.4333C46.5136 15.4333 47.7 16.6197 47.7 18.0833C47.7 18.5711 48.0955 18.9666 48.5834 18.9666C49.0712 18.9666 49.4667 18.5711 49.4667 18.0833C49.4667 16.6197 50.6531 15.4333 52.1167 15.4333C52.6045 15.4333 53 15.0378 53 14.55C53 14.0621 52.6045 13.6666 52.1167 13.6666ZM48.5834 15.4333C48.332 15.0986 48.0347 14.8013 47.7 14.55C48.0347 14.2987 48.332 14.0013 48.5834 13.6666C48.8347 14.0013 49.132 14.2987 49.4667 14.55C49.132 14.8013 48.8347 15.0986 48.5834 15.4333Z" fill="white"></path></svg>