<svg xmlns="http://www.w3.org/2000/svg" width="43" height="44" viewBox="0 0 43 44" fill="none"><path d="M31.1403 39.1103L30.2465 39.6278L28.0282 35.7765C27.8493 35.4661 27.4691 35.3359 27.1379 35.4713C25.9765 35.9448 24.7599 36.2702 23.5174 36.4392C23.1628 36.4879 22.8983 36.7913 22.8983 37.1496V41.5994H20.036V37.1496C20.036 36.7913 19.7715 36.4879 19.4169 36.4392C18.1751 36.2699 16.9592 35.9444 15.7985 35.4713C15.4672 35.3359 15.0871 35.4661 14.9082 35.7765L12.6899 39.6278L10.2126 38.1945L12.431 34.3396C12.6095 34.0296 12.5326 33.6356 12.2507 33.4158C11.2615 32.6456 10.3719 31.7547 9.60291 30.764C9.38349 30.4819 8.99006 30.4046 8.68049 30.5834L4.8315 32.8052L3.40036 30.3241L7.24586 28.1024C7.55577 27.9232 7.68575 27.5425 7.55053 27.2108C7.0778 26.0479 6.7525 24.8302 6.58339 23.5861C6.53483 23.2309 6.2319 22.966 5.87411 22.966H1.43114V20.0994H5.87411C6.2319 20.0994 6.53483 19.8348 6.58339 19.4796C6.7525 18.2356 7.07745 17.0179 7.54983 15.8554C7.68505 15.5236 7.55508 15.1429 7.24516 14.9637L3.39966 12.742L4.8308 10.261L8.67979 12.4827C8.98936 12.6615 9.38279 12.5845 9.60221 12.3021C10.3712 11.3115 11.2608 10.4205 12.25 9.65032C12.5316 9.43057 12.6088 9.03654 12.4303 8.7265L10.2119 4.87161L12.6892 3.43828L14.9075 7.28966C15.0864 7.60006 15.4665 7.73023 15.7978 7.59516C16.9588 7.12135 18.1747 6.79591 19.4169 6.62619C19.7715 6.57755 20.036 6.27415 20.036 5.91582V1.46605H22.8983V5.91582C22.8983 6.27415 23.1628 6.57755 23.5174 6.62619C24.7592 6.79556 25.9751 7.121 27.1358 7.59446C27.467 7.72953 27.8472 7.59936 28.0261 7.28896L30.2444 3.43758L32.7217 4.87091L30.5033 8.7258C30.3248 9.03584 30.4016 9.42987 30.6836 9.64962C31.6728 10.4198 32.5623 11.3108 33.3314 12.3014C33.5508 12.5838 33.9442 12.6608 34.2538 12.482L38.1028 10.2603L39.5339 12.7413L35.6884 14.963C35.3785 15.1422 35.2485 15.5229 35.3837 15.8547C35.8565 17.0175 36.1818 18.2353 36.3509 19.4796C36.3994 19.8348 36.7024 20.0994 37.0602 20.0994H41.5031V22.966H37.0602C36.7024 22.966 36.3994 23.2309 36.3509 23.5861C36.1818 24.8298 35.8568 26.0476 35.3844 27.2101C35.2492 27.5418 35.3792 27.9225 35.6891 28.1017L39.5346 30.3234L39.0206 31.2133C38.8232 31.5566 38.9406 31.9947 39.283 32.1928C39.6255 32.3908 40.0633 32.2733 40.261 31.93L41.1317 30.4193C41.3295 30.0767 41.2121 29.6383 40.87 29.4405L36.9344 27.1649C37.2604 26.2666 37.5077 25.3411 37.6727 24.3994H42.2187C42.6139 24.3994 42.9343 24.0785 42.9343 23.6827V19.3827C42.9343 18.9869 42.6139 18.666 42.2187 18.666H37.6727C37.5077 17.724 37.2607 16.7981 36.9344 15.8991L40.87 13.6235C41.2121 13.4258 41.3295 12.9873 41.1317 12.6447L38.985 8.91791C38.7876 8.57533 38.3498 8.45775 38.0077 8.65581L34.0682 10.936C33.4547 10.2039 32.7786 9.5268 32.0477 8.91231L34.3216 4.96715C34.5193 4.62456 34.403 4.18644 34.0613 3.98803L30.3401 1.83803C29.9981 1.63997 29.5603 1.75754 29.3629 2.10048L27.0907 6.04215C26.1938 5.71531 25.2697 5.4679 24.3294 5.30238V0.749381C24.3294 0.353605 24.009 0.0327148 23.6138 0.0327148H19.3204C18.9252 0.0327148 18.6049 0.353605 18.6049 0.749381V5.30238C17.6643 5.46755 16.7398 5.71531 15.8421 6.04215L13.57 2.10048C13.3726 1.75859 12.9358 1.64102 12.5941 1.83803L8.87301 3.98803C8.53095 4.18609 8.41355 4.62421 8.61131 4.96715L10.8852 8.91231C10.1543 9.5268 9.47817 10.2039 8.86463 10.936L4.92654 8.65861C4.58448 8.46055 4.14668 8.57812 3.94927 8.92071L1.80255 12.6475C1.60479 12.9901 1.72219 13.4286 2.06425 13.6266L5.9999 15.9019C5.67391 16.7998 5.42688 17.7247 5.26161 18.666H0.715571C0.3204 18.666 0 18.9869 0 19.3827V23.6827C0 24.0785 0.3204 24.3994 0.715571 24.3994H5.26161C5.42653 25.3414 5.67356 26.2673 5.9999 27.1663L2.06425 29.4419C1.72289 29.6397 1.60584 30.0771 1.80255 30.4193L3.94927 34.1461C4.14668 34.4887 4.58448 34.6063 4.92654 34.4082L8.86602 32.1308C9.47957 32.8629 10.1557 33.54 10.8866 34.1545L8.61271 38.1C8.41495 38.4426 8.53235 38.8811 8.87441 39.0788L12.5955 41.2288C12.7601 41.3226 12.9547 41.3481 13.1378 41.3005C13.3216 41.2515 13.4781 41.1312 13.5728 40.9667L15.8449 37.025C16.7415 37.3512 17.665 37.5982 18.6049 37.763V42.316C18.6049 42.7118 18.9252 43.0327 19.3204 43.0327H23.6138C24.009 43.0327 24.3294 42.7118 24.3294 42.316V37.763C25.27 37.5979 26.1945 37.3505 27.0921 37.0236L29.3643 40.9653C29.4593 41.1298 29.6158 41.2501 29.7993 41.2991C29.9824 41.3467 30.177 41.3208 30.3415 41.2274L31.8558 40.3526C32.1983 40.1545 32.3157 39.716 32.1179 39.3731C31.9205 39.0302 31.4827 38.9126 31.1403 39.1103Z" fill="white"></path><path d="M42.371 38.4169L28.8003 24.8254C30.1371 21.7642 29.402 18.1917 26.966 15.9091C24.5296 13.6268 20.9214 13.1302 17.9609 14.6699C17.7593 14.776 17.6199 14.9716 17.5857 15.1969C17.5511 15.4223 17.6258 15.6505 17.7869 15.8118L23.1128 21.1458L21.0807 23.1811L15.7548 17.847C15.5937 17.6857 15.3659 17.6108 15.1409 17.6454C14.9159 17.6797 14.7206 17.8193 14.6147 18.0213C13.0752 20.9866 13.57 24.6018 15.8491 27.0429C18.1286 29.4841 21.6974 30.2203 24.7546 28.8801L38.3253 42.4688C39.1635 43.3083 40.5224 43.3083 41.3606 42.4688L42.371 41.4561C43.2096 40.6166 43.2096 39.255 42.371 38.4155V38.4169ZM41.3599 40.4437L40.3484 41.4561C40.0653 41.7273 39.6199 41.7273 39.3372 41.4561L25.4077 27.5048C25.1869 27.2833 24.8479 27.2312 24.5705 27.3757C22.2411 28.5924 19.4071 28.2698 17.4096 26.5604C15.412 24.8513 14.6514 22.098 15.4879 19.6037L20.5748 24.6984C20.8543 24.9783 21.3071 24.9783 21.5866 24.6984L24.6278 21.6525C24.9073 21.3726 24.9073 20.9191 24.6278 20.6391L19.5409 15.5444C22.0314 14.707 24.7805 15.4685 26.487 17.4691C28.1938 19.4696 28.5159 22.308 27.3011 24.641C27.1568 24.9188 27.2088 25.2583 27.43 25.4794L41.3599 39.4303C41.6394 39.7102 41.6394 40.1637 41.3599 40.4437Z" fill="white"></path><path d="M23.7477 9.56448C23.3595 9.49064 22.9846 9.74574 22.9109 10.1349C22.8368 10.5237 23.0918 10.8988 23.48 10.973C24.1669 11.1028 24.8392 11.3005 25.4873 11.5626C25.5722 11.5976 25.6631 11.6151 25.755 11.6151C26.097 11.6147 26.3912 11.3715 26.4566 11.0349C26.5219 10.6983 26.3399 10.3627 26.0226 10.2339C25.2882 9.93646 24.5261 9.71215 23.7477 9.56448Z" fill="white"></path><path d="M9.30243 21.5329C9.30977 28.2587 14.752 33.7089 21.4671 33.7163C21.8623 33.7163 22.1827 33.3954 22.1827 32.9996C22.1827 32.6038 21.8623 32.2829 21.4671 32.2829C15.5392 32.2829 10.7336 27.4699 10.7336 21.5329C10.7336 15.5959 15.5392 10.7829 21.4671 10.7829C21.8623 10.7829 22.1827 10.4621 22.1827 10.0663C22.1827 9.6705 21.8623 9.34961 21.4671 9.34961C14.752 9.35731 9.30977 14.8075 9.30243 21.5329Z" fill="white"></path></svg>