<?xml version="1.0" encoding="UTF-8"?>
<svg xmlns="http://www.w3.org/2000/svg" width="30" height="30" viewBox="0 0 30 30" fill="none">
  <path d="M27.4556 0.264928C23.4979 2.24838 6.52795 10.754 1.83916 13.0722C-1.30535 14.557 0.535489 15.9493 0.535489 15.9493C0.535489 15.9493 3.21971 17.0628 5.52084 17.8981C7.82165 18.7333 9.04877 17.8054 9.04877 17.8054L19.8629 8.98886C23.6976 5.83347 22.7774 8.43189 21.8568 9.54583C19.8629 11.959 16.5649 15.7636 13.8038 18.8264C12.5767 20.1256 13.1901 21.2391 13.7273 21.7961C15.7212 23.8379 21.1669 28.0142 21.4734 28.2925C23.0936 29.6805 26.2806 31.6783 26.7653 27.4573L28.6827 12.8869C29.2964 7.96833 29.9098 3.42071 29.9864 2.1215C30.2167 -1.03428 27.4556 0.264928 27.4556 0.264928Z" fill="#1B92D1"></path>
</svg>
